<?xml version="1.0" standalone="no"?>
<!DOCTYPE svg PUBLIC "-//W3C//DTD SVG 20010904//EN"
 "http://www.w3.org/TR/2001/REC-SVG-20010904/DTD/svg10.dtd">
<svg version="1.0" xmlns="http://www.w3.org/2000/svg"
 width="512.000000pt" height="512.000000pt" viewBox="0 0 512.000000 512.000000"
 preserveAspectRatio="xMidYMid meet">

<g transform="translate(0.000000,512.000000) scale(0.100000,-0.100000)"
fill="#000000" stroke="none">
<path d="M762 4029 c-157 -78 -157 -302 1 -378 l43 -21 1754 0 1754 0 43 21
c158 76 158 302 0 378 l-43 21 -1755 0 -1754 0 -43 -21z"/>
<path d="M762 2749 c-157 -78 -157 -302 1 -378 l43 -21 1754 0 1754 0 43 21
c158 76 158 302 0 378 l-43 21 -1755 0 -1754 0 -43 -21z"/>
<path d="M762 1469 c-157 -78 -157 -302 1 -378 l43 -21 1754 0 1754 0 43 21
c158 76 158 302 0 378 l-43 21 -1755 0 -1754 0 -43 -21z"/>
</g>
</svg>
